<?xml version="1.0" encoding="UTF-8" standalone="no"?>
<!-- Created with Bouml (http://bouml.free.fr/) -->
<!DOCTYPE svg PUBLIC "-//W3C//DTD SVG 1.1//EN" "http://www.w3.org/Graphics/SVG/1.1/DTD/svg11.dtd">
<svg width="1446" height="826" version="1.1" xmlns="http://www.w3.org/2000/svg">
<g>
	<rect fill="#cbcbcb" stroke="none" stroke-opacity="1" x="652" y="861" width="3" height="79" />
	<rect fill="#cbcbcb" stroke="none" stroke-opacity="1" x="546" y="937" width="109" height="3" />
	<rect fill="#ffffc0" stroke="black" stroke-width="1" stroke-opacity="1" x="542" y="857" width="110" height="80" />
	<text font-family="Helvetica" font-size="9" fill="#000000" xml:space="preserve" font-weight="bold" text-anchor="middle" x="597" y="868">Parser</text>
	<line stroke="black" stroke-opacity="1" x1="542" y1="876" x2="652" y2="876" />
	<line stroke="black" stroke-opacity="1" x1="542" y1="884" x2="652" y2="884" />
	<text font-family="Helvetica" font-size="9" fill="#000000" xml:space="preserve" text-decoration="underline" x="546" y="895">tokenize()</text>
	<text font-family="Helvetica" font-size="9" fill="#000000" xml:space="preserve" text-decoration="underline" x="546" y="912">shuntingYardAST()</text>
	<text font-family="Helvetica" font-size="9" fill="#000000" xml:space="preserve" text-decoration="underline" x="546" y="929">parse()</text>
</g>
<g>
	<rect fill="#cbcbcb" stroke="none" stroke-opacity="1" x="791" y="858" width="3" height="61" />
	<rect fill="#cbcbcb" stroke="none" stroke-opacity="1" x="729" y="916" width="65" height="3" />
	<rect fill="#ffffc0" stroke="black" stroke-width="1" stroke-opacity="1" x="725" y="854" width="66" height="62" />
	<text font-family="Helvetica" font-size="9" fill="#000000" xml:space="preserve" font-weight="bold" text-anchor="middle" x="758" y="865">Calculator</text>
	<line stroke="black" stroke-opacity="1" x1="725" y1="873" x2="791" y2="873" />
	<line stroke="black" stroke-opacity="1" x1="725" y1="881" x2="791" y2="881" />
	<text font-family="Helvetica" font-size="9" fill="#000000" xml:space="preserve" text-decoration="underline" x="729" y="892">calculate()</text>
	<text font-family="Helvetica" font-size="9" fill="#000000" xml:space="preserve" text-decoration="underline" x="729" y="909">calculate()</text>
</g>
<g>
	<rect fill="#cbcbcb" stroke="none" stroke-opacity="1" x="1221" y="859" width="3" height="33" />
	<rect fill="#cbcbcb" stroke="none" stroke-opacity="1" x="1111" y="889" width="113" height="3" />
	<rect fill="#ffffc0" stroke="black" stroke-width="1" stroke-opacity="1" x="1107" y="855" width="114" height="34" />
	<text font-family="Helvetica" font-size="9" fill="#000000" xml:space="preserve" font-weight="bold" text-anchor="middle" x="1164" y="866">AppCompatActivity</text>
	<line stroke="black" stroke-opacity="1" x1="1107" y1="874" x2="1221" y2="874" />
	<line stroke="black" stroke-opacity="1" x1="1107" y1="882" x2="1221" y2="882" />
</g>
<g>
	<rect fill="#cbcbcb" stroke="none" stroke-opacity="1" x="1377" y="859" width="3" height="61" />
	<rect fill="#cbcbcb" stroke="none" stroke-opacity="1" x="1319" y="917" width="61" height="3" />
	<rect fill="#ffffc0" stroke="black" stroke-width="1" stroke-opacity="1" x="1315" y="855" width="62" height="62" />
	<text font-family="Helvetica" font-size="9" fill="#000000" xml:space="preserve" font-weight="bold" text-anchor="middle" x="1346" y="866">Lists</text>
	<line stroke="black" stroke-opacity="1" x1="1315" y1="874" x2="1377" y2="874" />
	<text font-family="Helvetica" font-size="9" fill="#000000" xml:space="preserve" text-decoration="underline" x="1319" y="885">constants</text>
	<text font-family="Helvetica" font-size="9" fill="#000000" xml:space="preserve" text-decoration="underline" x="1319" y="902">functions</text>
	<line stroke="black" stroke-opacity="1" x1="1315" y1="910" x2="1377" y2="910" />
</g>
<g>
	<rect fill="#cbcbcb" stroke="none" stroke-opacity="1" x="413" y="859" width="3" height="33" />
	<rect fill="#cbcbcb" stroke="none" stroke-opacity="1" x="355" y="889" width="61" height="3" />
	<rect fill="#ffffc0" stroke="black" stroke-width="1" stroke-opacity="1" x="351" y="855" width="62" height="34" />
	<text font-family="Helvetica" font-size="9" fill="#000000" xml:space="preserve" font-weight="bold" text-anchor="middle" x="382" y="866">Fragment</text>
	<line stroke="black" stroke-opacity="1" x1="351" y1="874" x2="413" y2="874" />
	<line stroke="black" stroke-opacity="1" x1="351" y1="882" x2="413" y2="882" />
</g>
<g>
	<rect fill="#cbcbcb" stroke="none" stroke-opacity="1" x="185" y="1037" width="3" height="33" />
	<rect fill="#cbcbcb" stroke="none" stroke-opacity="1" x="53" y="1067" width="135" height="3" />
	<rect fill="#ffffc0" stroke="black" stroke-width="1" stroke-opacity="1" x="49" y="1033" width="136" height="34" />
	<text font-family="Helvetica" font-size="9" fill="#000000" xml:space="preserve" font-weight="bold" text-anchor="middle" x="117" y="1044">FragmentStateAdapter</text>
	<line stroke="black" stroke-opacity="1" x1="49" y1="1052" x2="185" y2="1052" />
	<line stroke="black" stroke-opacity="1" x1="49" y1="1060" x2="185" y2="1060" />
</g>
<g>
	<rect fill="#cbcbcb" stroke="none" stroke-opacity="1" x="1232" y="943" width="3" height="141" />
	<rect fill="#cbcbcb" stroke="none" stroke-opacity="1" x="1098" y="1081" width="137" height="3" />
	<rect fill="#ffffc0" stroke="black" stroke-width="1" stroke-opacity="1" x="1094" y="939" width="138" height="142" />
	<text font-family="Helvetica" font-size="9" fill="#000000" xml:space="preserve" font-weight="bold" text-anchor="middle" x="1163" y="950">MainActivity</text>
	<line stroke="black" stroke-opacity="1" x1="1094" y1="958" x2="1232" y2="958" />
	<text font-family="Helvetica" font-size="9" fill="#000000" xml:space="preserve" x="1098" y="969">fastRemovingPattern</text>
	<line stroke="black" stroke-opacity="1" x1="1094" y1="977" x2="1232" y2="977" />
	<text font-family="Helvetica" font-size="9" fill="#000000" xml:space="preserve" x="1098" y="988">onCreate()</text>
	<text font-family="Helvetica" font-size="9" fill="#000000" xml:space="preserve" x="1098" y="1005">onEnterButtonClick()</text>
	<text font-family="Helvetica" font-size="9" fill="#000000" xml:space="preserve" x="1098" y="1022">onCalcButtonClick()</text>
	<text font-family="Helvetica" font-size="9" fill="#000000" xml:space="preserve" x="1098" y="1039">onClearButtonClick()</text>
	<text font-family="Helvetica" font-size="9" fill="#000000" xml:space="preserve" x="1098" y="1056">onRemoveButtonClick()</text>
	<text font-family="Helvetica" font-size="9" fill="#000000" xml:space="preserve" x="1098" y="1073">scrollToBottom()</text>
</g>
<g>
	<rect fill="#cbcbcb" stroke="none" stroke-opacity="1" x="195" y="1117" width="3" height="79" />
	<rect fill="#cbcbcb" stroke="none" stroke-opacity="1" x="45" y="1193" width="153" height="3" />
	<rect fill="#ffffc0" stroke="black" stroke-width="1" stroke-opacity="1" x="41" y="1113" width="154" height="80" />
	<text font-family="Helvetica" font-size="9" fill="#000000" xml:space="preserve" font-weight="bold" text-anchor="middle" x="118" y="1124">KeypadCollectionAdapter</text>
	<line stroke="black" stroke-opacity="1" x1="41" y1="1132" x2="195" y2="1132" />
	<line stroke="black" stroke-opacity="1" x1="41" y1="1140" x2="195" y2="1140" />
	<text font-family="Helvetica" font-size="9" fill="#000000" xml:space="preserve" x="45" y="1151">KeypadCollectionAdapter()</text>
	<text font-family="Helvetica" font-size="9" fill="#000000" xml:space="preserve" x="45" y="1168">createFragment()</text>
	<text font-family="Helvetica" font-size="9" fill="#000000" xml:space="preserve" x="45" y="1185">getItemCount()</text>
</g>
<g>
	<line stroke="#000000" stroke-opacity="1" x1="124" y1="1112" x2="123" y2="1076" />
	<line stroke="#000000" stroke-opacity="1" x1="123" y1="1071" x2="117" y2="1077" />
	<line stroke="#000000" stroke-opacity="1" x1="123" y1="1071" x2="129" y2="1076" />
	<line stroke="#000000" stroke-opacity="1" x1="117" y1="1077" x2="129" y2="1076" />
</g>
<g>
	<line stroke="#000000" stroke-opacity="1" x1="1165" y1="938" x2="1165" y2="899" />
	<line stroke="#000000" stroke-opacity="1" x1="1165" y1="893" x2="1159" y2="899" />
	<line stroke="#000000" stroke-opacity="1" x1="1165" y1="893" x2="1171" y2="899" />
	<line stroke="#000000" stroke-opacity="1" x1="1159" y1="899" x2="1171" y2="899" />
</g>
<g>
	<text font-family="Helvetica" font-size="9" fill="#000000" xml:space="preserve" text-decoration="underline" x="609" y="1002">rules</text>
</g>
<g>
	<text font-family="Helvetica" font-size="9" fill="#000000" xml:space="preserve" x="660" y="1061">type</text>
</g>
<g>
	<text font-family="Helvetica" font-size="9" fill="#000000" xml:space="preserve" x="204" y="1144">demoCollectionAdapter</text>
</g>
<g>
	<rect fill="#cbcbcb" stroke="none" stroke-opacity="1" x="462" y="1120" width="3" height="73" />
	<rect fill="#cbcbcb" stroke="none" stroke-opacity="1" x="306" y="1190" width="159" height="3" />
	<rect fill="#ffffc0" stroke="black" stroke-width="1" stroke-opacity="1" x="302" y="1116" width="160" height="74" />
	<text font-family="Helvetica" font-size="9" fill="#000000" xml:space="preserve" font-weight="bold" text-anchor="middle" x="382" y="1127">KeypadCollectionFragment</text>
	<line stroke="black" stroke-opacity="1" x1="302" y1="1135" x2="462" y2="1135" />
	<text font-family="Helvetica" font-size="9" fill="#000000" xml:space="preserve" x="306" y="1146">viewPager</text>
	<line stroke="black" stroke-opacity="1" x1="302" y1="1154" x2="462" y2="1154" />
	<text font-family="Helvetica" font-size="9" fill="#000000" xml:space="preserve" x="306" y="1165">onCreateView()</text>
	<text font-family="Helvetica" font-size="9" fill="#000000" xml:space="preserve" x="306" y="1182">onViewCreated()</text>
</g>
<g>
	<line stroke="black" stroke-opacity="1" x1="199" y1="1155" x2="205" y2="1161" />
	<line stroke="black" stroke-opacity="1" x1="199" y1="1155" x2="205" y2="1149" />
	<line stroke="black" stroke-opacity="1" x1="301" y1="1155" x2="199" y2="1155" />
</g>
<g>
	<line stroke="#000000" stroke-opacity="1" x1="384" y1="1115" x2="384" y2="899" />
	<line stroke="#000000" stroke-opacity="1" x1="384" y1="893" x2="378" y2="899" />
	<line stroke="#000000" stroke-opacity="1" x1="384" y1="893" x2="390" y2="899" />
	<line stroke="#000000" stroke-opacity="1" x1="378" y1="899" x2="390" y2="899" />
</g>
<g>
	<rect fill="#cbcbcb" stroke="none" stroke-opacity="1" x="338" y="983" width="3" height="89" />
	<rect fill="#cbcbcb" stroke="none" stroke-opacity="1" x="238" y="1069" width="103" height="3" />
	<rect fill="#ffffc0" stroke="black" stroke-width="1" stroke-opacity="1" x="234" y="979" width="104" height="90" />
	<text font-family="Helvetica" font-size="9" fill="#000000" xml:space="preserve" font-weight="bold" text-anchor="middle" x="286" y="990">KeypadFragment</text>
	<line stroke="black" stroke-opacity="1" x1="234" y1="998" x2="338" y2="998" />
	<text font-family="Helvetica" font-size="9" fill="#000000" xml:space="preserve" text-decoration="underline" x="238" y="1009">ARG_POSITION</text>
	<text font-family="Helvetica" font-size="9" fill="#000000" xml:space="preserve" text-decoration="underline" x="238" y="1026">fragmentNumber</text>
	<line stroke="black" stroke-opacity="1" x1="234" y1="1034" x2="338" y2="1034" />
	<text font-family="Helvetica" font-size="9" fill="#000000" xml:space="preserve" x="238" y="1045">onCreateView()</text>
	<text font-family="Helvetica" font-size="9" fill="#000000" xml:space="preserve" x="238" y="1062">onViewCreated()</text>
</g>
<g>
	<line stroke="#000000" stroke-opacity="1" x1="288" y1="978" x2="289" y2="939" />
</g>
<g>
	<line stroke="#000000" stroke-opacity="1" x1="289" y1="939" x2="383" y2="939" />
</g>
<g>
	<line stroke="#000000" stroke-opacity="1" x1="383" y1="939" x2="383" y2="899" />
	<line stroke="#000000" stroke-opacity="1" x1="383" y1="893" x2="377" y2="899" />
	<line stroke="#000000" stroke-opacity="1" x1="383" y1="893" x2="389" y2="899" />
	<line stroke="#000000" stroke-opacity="1" x1="377" y1="899" x2="389" y2="899" />
</g>
<g>
	<rect fill="#cbcbcb" stroke="none" stroke-opacity="1" x="1009" y="859" width="3" height="33" />
	<rect fill="#cbcbcb" stroke="none" stroke-opacity="1" x="907" y="889" width="105" height="3" />
	<rect fill="#ffffc0" stroke="black" stroke-width="1" stroke-opacity="1" x="903" y="855" width="106" height="34" />
	<text font-family="Helvetica" font-size="9" fill="#000000" xml:space="preserve" font-weight="bold" text-anchor="middle" x="956" y="866">OnTouchListener</text>
	<line stroke="black" stroke-opacity="1" x1="903" y1="874" x2="1009" y2="874" />
	<line stroke="black" stroke-opacity="1" x1="903" y1="882" x2="1009" y2="882" />
</g>
<g>
	<rect fill="#cbcbcb" stroke="none" stroke-opacity="1" x="1008" y="943" width="3" height="157" />
	<rect fill="#cbcbcb" stroke="none" stroke-opacity="1" x="908" y="1097" width="103" height="3" />
	<rect fill="#ffffc0" stroke="black" stroke-width="1" stroke-opacity="1" x="904" y="939" width="104" height="158" />
	<text font-family="Helvetica" font-size="9" fill="#000000" xml:space="preserve" font-weight="bold" text-anchor="middle" x="956" y="950">RepeatListener</text>
	<line stroke="black" stroke-opacity="1" x1="904" y1="958" x2="1008" y2="958" />
	<text font-family="Helvetica" font-size="9" fill="#000000" xml:space="preserve" x="908" y="969">handler</text>
	<text font-family="Helvetica" font-size="9" fill="#000000" xml:space="preserve" x="908" y="986">initialInterval</text>
	<text font-family="Helvetica" font-size="9" fill="#000000" xml:space="preserve" x="908" y="1003">normalInterval</text>
	<text font-family="Helvetica" font-size="9" fill="#000000" xml:space="preserve" x="908" y="1020">clickListener</text>
	<text font-family="Helvetica" font-size="9" fill="#000000" xml:space="preserve" x="908" y="1037">touchedView</text>
	<text font-family="Helvetica" font-size="9" fill="#000000" xml:space="preserve" x="908" y="1054">handlerRunnable</text>
	<line stroke="black" stroke-opacity="1" x1="904" y1="1062" x2="1008" y2="1062" />
	<text font-family="Helvetica" font-size="9" fill="#000000" xml:space="preserve" x="908" y="1073">RepeatListener()</text>
	<text font-family="Helvetica" font-size="9" fill="#000000" xml:space="preserve" x="908" y="1090">onTouch()</text>
</g>
<g>
	<line stroke-dasharray="4,4" stroke="#000000" stroke-opacity="1" x1="958" y1="938" x2="958" y2="899" />
	<line stroke="#000000" stroke-opacity="1" x1="958" y1="893" x2="952" y2="899" />
	<line stroke="#000000" stroke-opacity="1" x1="958" y1="893" x2="964" y2="899" />
	<line stroke="#000000" stroke-opacity="1" x1="952" y1="899" x2="964" y2="899" />
</g>
<g>
	<rect fill="#cbcbcb" stroke="none" stroke-opacity="1" x="647" y="1013" width="3" height="123" />
	<rect fill="#cbcbcb" stroke="none" stroke-opacity="1" x="551" y="1133" width="99" height="3" />
	<rect fill="#ffffc0" stroke="black" stroke-width="1" stroke-opacity="1" x="547" y="1009" width="100" height="124" />
	<text font-family="Helvetica" font-size="9" fill="#000000" xml:space="preserve" font-weight="bold" text-anchor="middle" x="597" y="1020">Rule</text>
	<line stroke="black" stroke-opacity="1" x1="547" y1="1028" x2="647" y2="1028" />
	<text font-family="Helvetica" font-size="9" fill="#000000" xml:space="preserve" x="551" y="1039">pattern</text>
	<text font-family="Helvetica" font-size="9" fill="#000000" xml:space="preserve" x="551" y="1056">args</text>
	<text font-family="Helvetica" font-size="9" fill="#000000" xml:space="preserve" x="551" y="1073">precedence</text>
	<text font-family="Helvetica" font-size="9" fill="#000000" xml:space="preserve" x="551" y="1090">isLeftAssociative</text>
	<line stroke="black" stroke-opacity="1" x1="547" y1="1098" x2="647" y2="1098" />
	<text font-family="Helvetica" font-size="9" fill="#000000" xml:space="preserve" x="551" y="1109">Rule()</text>
	<text font-family="Helvetica" font-size="9" fill="#000000" xml:space="preserve" x="551" y="1126">Rule()</text>
</g>
<g>
	<text font-family="Helvetica" font-size="9" fill="#000000" xml:space="preserve" x="560" y="982">&lt;&lt;ArrayList&gt;&gt;</text>
</g>
<g>
	<line stroke="black" stroke-opacity="1" x1="599" y1="1008" x2="605" y2="1002" />
	<line stroke="black" stroke-opacity="1" x1="599" y1="1008" x2="593" y2="1002" />
	<line stroke="black" stroke-opacity="1" x1="599" y1="941" x2="599" y2="1008" />
</g>
<g>
	<rect fill="#cbcbcb" stroke="none" stroke-opacity="1" x="820" y="983" width="3" height="183" />
	<rect fill="#cbcbcb" stroke="none" stroke-opacity="1" x="688" y="1163" width="135" height="3" />
	<rect fill="#ffffc0" stroke="black" stroke-width="1" stroke-opacity="1" x="684" y="979" width="136" height="184" />
	<text font-family="Helvetica" font-size="9" fill="#000000" xml:space="preserve" text-anchor="middle" x="752" y="990">&lt;&lt;enum&gt;&gt;</text>
	<text font-family="Helvetica" font-size="9" fill="#000000" xml:space="preserve" font-weight="bold" text-anchor="middle" x="752" y="1009">Token</text>
	<line stroke="black" stroke-opacity="1" x1="684" y1="1017" x2="820" y2="1017" />
	<text font-family="Helvetica" font-size="9" fill="#000000" xml:space="preserve" x="688" y="1028">NAMED_FUNCTION</text>
	<text font-family="Helvetica" font-size="9" fill="#000000" xml:space="preserve" x="688" y="1045">CONSTANT</text>
	<text font-family="Helvetica" font-size="9" fill="#000000" xml:space="preserve" x="688" y="1062">OPERATOR</text>
	<text font-family="Helvetica" font-size="9" fill="#000000" xml:space="preserve" x="688" y="1079">UNARY_OPERATOR</text>
	<text font-family="Helvetica" font-size="9" fill="#000000" xml:space="preserve" x="688" y="1096">LEFT_PARENTHESIS</text>
	<text font-family="Helvetica" font-size="9" fill="#000000" xml:space="preserve" x="688" y="1113">RIGHT_PARENTHESIS</text>
	<text font-family="Helvetica" font-size="9" fill="#000000" xml:space="preserve" x="688" y="1130">NUMBER</text>
	<text font-family="Helvetica" font-size="9" fill="#000000" xml:space="preserve" x="688" y="1147">VARIABLE</text>
	<line stroke="black" stroke-opacity="1" x1="684" y1="1155" x2="820" y2="1155" />
</g>
<g>
	<line stroke="black" stroke-opacity="1" x1="683" y1="1073" x2="677" y2="1067" />
	<line stroke="black" stroke-opacity="1" x1="683" y1="1073" x2="677" y2="1079" />
	<line stroke="black" stroke-opacity="1" x1="651" y1="1073" x2="683" y2="1073" />
</g>
</svg>
